<?xml version="1.0" encoding="UTF-8"?>
<svg id="Layer_1" data-name="Layer 1" xmlns="http://www.w3.org/2000/svg" viewBox="0 0 2000 585.98">
  <defs>
    <style>
      .cls-1 {
        font-family: NeuropoliticalRg-Regular, Neuropolitical;
        font-size: 260.83px;
      }

      .cls-1, .cls-2 {
        fill: #231f20;
      }

      .cls-2 {
        font-family: Neusharp-Regular, Neusharp;
        font-size: 88.31px;
      }

      .cls-3 {
        fill: #00a19e;
      }
    </style>
  </defs>
  <g>
    <path class="cls-3" d="M485.13,429.17c6.87,1.66,13.85,2.97,20.92,3.9,3.56.47,7.16.85,10.77,1.13,18.89,1.58,38.27.62,57.21-3.16,16.56-3.34,32.85-8.81,48.19-16.47,24.02-11.98,45.78-29.38,62.76-52.29,21.55-29.06,32.44-61.49,33.09-94,.12-3.11.12-6.22,0-9.25-.65-32.52-11.54-64.95-33.09-94.01-16.98-22.91-38.63-40.33-62.76-52.29-15.34-7.67-31.63-13.14-48.19-16.55-19.02-3.69-38.32-4.74-57.21-3.16-10.7.83-21.32,2.52-31.67,5-3.41.81-6.79,1.71-10.13,2.69-13.94,4.19-27.37,9.84-39.87,16.89-4,2.28-10.29,6.43-18.3,12.06-9.73,6.8-21.99,15.77-35.58,25.88,2.95,1.65,6,3.35,9.12,5.09,14.98,8.34,33.36,7.7,47.71-1.69,5.96-3.9,10.45-6.64,13.06-7.9,1.24-.61,2.49-1.21,3.75-1.75,28.87-13.12,61.29-16.95,92.27-11.27,30.87,5.53,60.08,20.55,81.88,44.45,19.75,21.66,28.97,50.63,27.78,80.38,0,.56.1,1.04,0,1.6,1.2,29.74-8.02,58.63-27.78,80.29-21.8,23.89-51.01,38.91-81.88,44.45-30.98,5.68-63.39,1.92-92.34-11.28-1.26-.54-2.44-1.14-3.68-1.74-5.3-2.57-18.41-11.26-35.92-23.39-17-11.82-37.83-26.69-59.33-42.22-.05-.03-.09-.07-.13-.1-10.41-7.52-80.6-60.8-88.8-66.8-.04-.03-.09-.06-.13-.09-20.03-14.65-36.58-26.68-42.74-30.98-.92-.61-1.63-1.09-2.09-1.37-10.09-6.34-20.64-7.92-30.22-5.44h-.04c-11.71,2.95-22.05,11.88-28.76,25.67-4.9,10.03-6.98,21.2-6.38,32.13v.05c-.6,10.92,1.48,22.1,6.38,32.13,6.71,13.79,17.09,22.73,28.79,25.67h.04c9.58,2.44,20.09.86,30.18-5.44.46-.28,1.17-.75,2.09-1.42h.04c2.15-1.47,5.52-3.87,9.86-6.99,19.46-14.03,45.83-13.58,64.82,1.08.11.09.23.17.34.26v.06c8.67,6.76,17.61,13.67,26.53,20.52,19.16,14.74,38.34,29.42,55.5,42.22h.07c13.58,10.12,25.79,19.01,35.51,25.81,8.01,5.64,14.36,9.79,18.36,12.07,12.49,7.06,25.93,12.71,39.87,16.83,3.35,1,6.72,1.91,10.12,2.73Z"/>
    <path class="cls-3" d="M208.07,141.37c-3.71.15-7.39.58-11.03,1.27-1.81.35-3.61.76-5.4,1.24-9.04,2.35-17.79,6.34-25.87,11.85-6.71,4.6-13.03,10.27-18.72,16.9-8.46,9.83-15.67,21.94-21.03,36.13-6.49,17.16-9.64,34.99-9.83,52.37-.03,1.66-.03,3.32,0,4.94.19,17.39,3.34,35.21,9.83,52.37,5.36,14.19,12.54,26.3,21.03,36.13,5.69,6.63,12,12.29,18.72,16.95,8.12,5.47,16.84,9.5,25.87,11.85,5.36,1.44,10.87,2.29,16.42,2.53,1.87.08,3.74.1,5.62.05,8.05-.3,16.17-1.88,24.08-4.87,2.61-1,6.78-3.07,12.24-6.06,6.85-3.72,15.86-8.95,26.34-15.2-.18-.16-.36-.31-.54-.47-13.18-11.44-31.62-14.28-47.82-7.81-.1.04-.19.08-.28.11-.76.28-1.52.56-2.28.79-16.6,5.49-33.46,3.41-48.04-4.65-13.26-7.25-24.77-19.56-32.78-35.7-6.87-13.85-9.96-30.92-9.56-48.03,0-.32-.03-.6,0-.92-.4-17.11,2.69-34.13,9.56-47.98,8.01-16.14,19.52-28.45,32.78-35.7,14.59-8.06,31.44-10.19,48.08-4.66.76.23,1.48.51,2.24.79,3.27,1.21,11.63,6.19,23.43,13.64,12.21,7.76,28.3,18.33,46.38,30.38.04.03.08.05.12.08,9.35,6.24,85.14,59.64,95.75,66.87.05.04.11.08.17.11,27.96,19.01,53.43,36.24,63.53,42.86,1.54.97,2.74,1.72,3.51,2.18,17.56,10.53,37.08,15.27,55.93,14.25h.07c24.67-1.18,48.07-12,64.17-31.96,12.24-15.11,17.55-32.8,16.02-50.34v-.08c1.53-17.54-3.78-35.23-16.02-50.34-16.1-19.97-39.59-30.78-64.25-31.96h-.08c-18.84-.94-38.29,3.78-55.85,14.25-.77.45-1.97,1.2-3.51,2.24h-.07c-6.38,4.11-18.76,12.43-34,22.76-17.82,12.08-41.1,12.46-59.31,1-3.23-2.04-6.46-4.06-9.67-6.07v-.06c-9.6-6.07-19.1-12.02-28.2-17.68-18.38-11.44-35.33-21.93-49.41-30.35h-.05c-10.48-6.24-19.44-11.42-26.29-15.14-5.46-2.99-9.68-5.05-12.29-6.05-7.91-2.99-16.03-4.57-24.08-4.82-1.87-.06-3.74-.06-5.61.01Z"/>
  </g>
  <text class="cls-1" transform="translate(756.5 327.97)"><tspan x="0" y="0">Infinitix</tspan></text>
  <text class="cls-2" transform="translate(756.5 414.29)"><tspan x="0" y="0">TECHNOLOGIES</tspan></text>
</svg>