<?xml version="1.0" encoding="UTF-8"?>
<svg id="Layer_1" data-name="Layer 1" xmlns="http://www.w3.org/2000/svg" viewBox="0 0 2000 2000">
  <defs>
    <style>
      .cls-1 {
        font-family: NeuropoliticalRg-Regular, Neuropolitical;
        font-size: 343.38px;
      }

      .cls-1, .cls-2 {
        fill: #231f20;
      }

      .cls-2 {
        font-family: Neusharp-Regular, Neusharp;
        font-size: 116.26px;
      }

      .cls-3 {
        fill: #00a19e;
      }
    </style>
  </defs>
  <g>
    <g>
      <path class="cls-3" d="M1057.16,1054.93c12.3,2.98,24.8,5.31,37.45,6.99,6.38.84,12.81,1.52,19.28,2.03,33.82,2.83,68.5,1.11,102.41-5.65,29.64-5.98,58.8-15.76,86.26-29.49,43.01-21.44,81.95-52.59,112.34-93.6,38.57-52.01,58.07-110.07,59.23-168.26.22-5.57.22-11.14,0-16.55-1.17-58.21-20.66-116.26-59.23-168.28-30.4-41.02-69.14-72.19-112.34-93.6-27.46-13.73-56.63-23.51-86.26-29.63-34.05-6.61-68.6-8.48-102.41-5.65-19.15,1.49-38.16,4.52-56.7,8.96-6.1,1.46-12.15,3.07-18.14,4.82-24.95,7.49-49,17.61-71.36,30.24-7.17,4.09-18.41,11.51-32.75,21.59-17.41,12.18-39.37,28.23-63.68,46.33,5.28,2.95,10.74,5.99,16.33,9.11,26.81,14.94,59.71,13.78,85.4-3.02,10.68-6.98,18.71-11.89,23.37-14.15,2.22-1.08,4.46-2.16,6.71-3.13,51.68-23.49,109.71-30.35,165.16-20.17,55.27,9.9,107.54,36.79,146.57,79.56,35.36,38.78,51.86,90.63,49.72,143.88,0,1,.18,1.86,0,2.86,2.14,53.24-14.36,104.95-49.72,143.73-39.03,42.77-91.3,69.64-146.57,79.56-55.45,10.17-113.48,3.43-165.29-20.19-2.25-.97-4.36-2.04-6.59-3.12-9.5-4.61-32.96-20.16-64.3-41.86-30.43-21.16-67.71-47.78-106.2-75.58-.08-.06-.16-.12-.24-.18-18.63-13.47-144.29-108.84-158.95-119.58-.07-.06-.15-.11-.23-.17-35.86-26.22-65.48-47.75-76.5-55.46-1.65-1.1-2.92-1.94-3.74-2.45-18.06-11.35-36.95-14.18-54.09-9.73h-.07c-20.96,5.28-39.46,21.26-51.48,45.95-8.78,17.95-12.49,37.96-11.42,57.51v.09c-1.07,19.55,2.64,39.56,11.42,57.51,12.02,24.69,30.59,40.68,51.54,45.95h.07c17.15,4.37,35.96,1.53,54.03-9.73.82-.5,2.09-1.34,3.74-2.54h.08c3.84-2.63,9.89-6.93,17.64-12.52,34.84-25.11,82.03-24.31,116.03,1.93.2.16.4.31.61.47v.1c15.52,12.1,31.53,24.46,47.5,36.73,34.29,26.38,68.63,52.66,99.34,75.58h.12c24.31,18.11,46.16,34.03,63.57,46.21,14.35,10.09,25.71,17.53,32.87,21.6,22.36,12.64,46.41,22.75,71.36,30.12,5.99,1.78,12.03,3.41,18.11,4.89Z"/>
      <path class="cls-3" d="M561.23,539.76c-6.64.27-13.22,1.03-19.74,2.28-3.24.62-6.46,1.36-9.66,2.21-16.18,4.21-31.84,11.34-46.32,21.2-12.02,8.24-23.32,18.38-33.51,30.25-15.14,17.6-28.06,39.28-37.65,64.68-11.62,30.72-17.26,62.63-17.59,93.74-.06,2.98-.06,5.95,0,8.84.33,31.12,5.98,63.03,17.59,93.74,9.59,25.4,22.45,47.07,37.65,64.67,10.19,11.87,21.49,22.01,33.51,30.33,14.53,9.79,30.14,17,46.32,21.2,9.6,2.58,19.45,4.09,29.39,4.53,3.35.15,6.7.18,10.05.08,14.41-.54,28.95-3.37,43.11-8.72,4.67-1.8,12.14-5.49,21.9-10.84,12.27-6.66,28.39-16.02,47.15-27.2-.32-.28-.64-.56-.97-.84-23.59-20.47-56.6-25.56-85.61-13.97-.18.07-.35.14-.51.2-1.36.51-2.72,1-4.08,1.41-29.72,9.83-59.89,6.1-86-8.33-23.73-12.97-44.33-35-58.67-63.9-12.29-24.79-17.82-55.34-17.11-85.97,0-.57-.06-1.07,0-1.65-.72-30.62,4.81-61.1,17.11-85.88,14.34-28.89,34.94-50.92,58.67-63.9,26.11-14.44,56.28-18.25,86.07-8.34,1.36.41,2.65.92,4,1.42,5.86,2.17,20.82,11.07,41.94,24.42,21.86,13.89,50.66,32.82,83.02,54.37.07.05.14.1.21.15,16.74,11.16,152.4,106.76,171.4,119.7.1.07.2.14.3.21,50.04,34.03,95.64,64.88,113.72,76.71,2.76,1.73,4.9,3.08,6.28,3.89,31.43,18.86,66.37,27.33,100.12,25.52h.13c44.15-2.11,86.05-21.48,114.87-57.22,21.91-27.05,31.42-58.71,28.67-90.11v-.14c2.75-31.4-6.76-63.06-28.67-90.1-28.83-35.74-70.87-55.09-115.01-57.22h-.14c-33.73-1.69-68.54,6.77-99.97,25.52-1.38.81-3.52,2.15-6.28,4.02h-.13c-11.42,7.36-33.59,22.25-60.86,40.74-31.9,21.62-73.56,22.31-106.18,1.78-5.79-3.65-11.56-7.27-17.31-10.86v-.11c-17.18-10.87-34.19-21.51-50.48-31.65-32.9-20.48-63.25-39.26-88.45-54.33h-.09c-18.76-11.17-34.8-20.44-47.06-27.1-9.78-5.36-17.32-9.04-21.99-10.83-14.15-5.35-28.7-8.17-43.11-8.63-3.35-.12-6.7-.11-10.04.02Z"/>
    </g>
    <text class="cls-1" transform="translate(243.79 1403.49)"><tspan x="0" y="0">Infinitix</tspan></text>
  </g>
  <text class="cls-2" transform="translate(500.75 1517.14)"><tspan x="0" y="0">TECHNOLOGIES</tspan></text>
</svg>