<?xml version="1.0" encoding="UTF-8"?>
<svg id="Layer_1" data-name="Layer 1" xmlns="http://www.w3.org/2000/svg" viewBox="0 0 2000 2000">
  <defs>
    <style>
      .cls-1, .cls-2, .cls-3 {
        fill: #231f20;
      }

      .cls-4, .cls-5, .cls-6 {
        fill: #fff;
      }

      .cls-4, .cls-3 {
        font-family: Neusharp-Regular, Neusharp;
        font-size: 70px;
      }

      .cls-2, .cls-5 {
        font-family: NeuropoliticalRg-Regular, Neuropolitical;
        font-size: 206.76px;
      }

      .cls-7 {
        fill: #00a19e;
      }
    </style>
  </defs>
  <g>
    <rect class="cls-6" x="0" width="2000" height="2000"/>
    <g>
      <rect class="cls-1" x="0" y="1000" width="2000" height="1000"/>
      <rect class="cls-6" x="0" y="0" width="2000" height="1000"/>
    </g>
  </g>
  <g>
    <g>
      <g>
        <path class="cls-7" d="M1037.81,574.81c7.41,1.79,14.93,3.2,22.55,4.21,3.84.51,7.71.91,11.61,1.22,20.36,1.7,41.25.67,61.67-3.4,17.84-3.6,35.41-9.49,51.94-17.76,25.89-12.91,49.34-31.66,67.64-56.36,23.22-31.32,34.96-66.27,35.67-101.32.13-3.36.13-6.7,0-9.97-.7-35.05-12.44-70.01-35.67-101.32-18.3-24.7-41.63-43.47-67.64-56.36-16.53-8.27-34.1-14.16-51.94-17.84-20.5-3.98-41.3-5.11-61.67-3.4-11.53.89-22.98,2.72-34.14,5.39-3.68.88-7.32,1.85-10.92,2.9-15.02,4.51-29.5,10.6-42.97,18.21-4.31,2.46-11.09,6.93-19.72,13-10.49,7.33-23.71,17-38.35,27.89,3.18,1.78,6.46,3.61,9.83,5.48,16.14,8.99,35.95,8.3,51.42-1.82,6.43-4.21,11.26-7.16,14.07-8.52,1.34-.65,2.69-1.3,4.04-1.89,31.12-14.14,66.06-18.27,99.45-12.15,33.28,5.96,64.75,22.15,88.25,47.9,21.29,23.35,31.23,54.57,29.94,86.63,0,.6.11,1.12,0,1.72,1.29,32.05-8.65,63.2-29.94,86.54-23.5,25.75-54.98,41.93-88.25,47.9-33.39,6.13-68.33,2.06-99.52-12.16-1.36-.58-2.63-1.23-3.97-1.88-5.72-2.77-19.85-12.14-38.71-25.21-18.32-12.74-40.77-28.77-63.95-45.51-.05-.04-.09-.07-.14-.11-11.22-8.11-86.88-65.54-95.71-72-.04-.03-.09-.07-.14-.1-21.59-15.79-39.42-28.75-46.06-33.39-.99-.66-1.76-1.17-2.25-1.47-10.88-6.84-22.25-8.54-32.57-5.86h-.04c-12.62,3.18-23.76,12.8-31,27.67-5.28,10.81-7.52,22.85-6.88,34.63v.05c-.64,11.77,1.59,23.82,6.88,34.63,7.24,14.87,18.42,24.49,31.04,27.67h.04c10.32,2.63,21.65.92,32.53-5.86.49-.3,1.26-.81,2.25-1.53h.05c2.31-1.58,5.95-4.17,10.62-7.54,20.98-15.12,49.39-14.64,69.87,1.16.12.09.24.19.36.28v.06c9.34,7.29,18.98,14.73,28.6,22.12,20.65,15.88,41.32,31.71,59.82,45.51h.07c14.64,10.9,27.79,20.49,38.27,27.82,8.64,6.07,15.48,10.55,19.79,13.01,13.46,7.61,27.95,13.7,42.97,18.14,3.61,1.07,7.24,2.06,10.9,2.94Z"/>
        <path class="cls-7" d="M739.2,264.61c-4,.16-7.96.62-11.89,1.37-1.95.37-3.89.82-5.82,1.33-9.74,2.53-19.17,6.83-27.89,12.77-7.24,4.96-14.04,11.07-20.17,18.21-9.11,10.6-16.89,23.65-22.67,38.94-6.99,18.5-10.39,37.71-10.59,56.44-.04,1.79-.04,3.58,0,5.32.2,18.74,3.6,37.95,10.59,56.45,5.78,15.29,13.52,28.34,22.67,38.94,6.13,7.14,12.94,13.25,20.17,18.26,8.75,5.89,18.15,10.23,27.89,12.77,5.78,1.55,11.71,2.47,17.7,2.73,2.02.09,4.03.11,6.05.05,8.67-.33,17.43-2.03,25.96-5.25,2.81-1.08,7.31-3.31,13.19-6.53,7.39-4.01,17.09-9.65,28.39-16.38-.19-.17-.39-.34-.58-.5-14.21-12.33-34.08-15.39-51.55-8.41-.11.04-.21.08-.31.12-.82.3-1.64.6-2.46.85-17.89,5.92-36.06,3.68-51.78-5.02-14.29-7.81-26.69-21.08-35.33-38.47-7.4-14.92-10.73-33.32-10.3-51.76,0-.35-.04-.64,0-.99-.43-18.44,2.9-36.79,10.3-51.71,8.63-17.4,21.04-30.66,35.33-38.48,15.72-8.69,33.89-10.99,51.83-5.02.82.25,1.59.55,2.41.86,3.53,1.31,12.54,6.67,25.25,14.7,13.16,8.36,30.51,19.76,49.99,32.74.04.03.08.06.13.09,10.08,6.72,91.76,64.28,103.21,72.08.06.04.12.08.18.12,30.13,20.49,57.59,39.07,68.47,46.19,1.66,1.04,2.95,1.85,3.78,2.34,18.93,11.35,39.96,16.46,60.28,15.36h.08c26.59-1.27,51.81-12.93,69.17-34.45,13.19-16.29,18.92-35.35,17.26-54.26v-.08c1.65-18.91-4.07-37.97-17.26-54.25-17.36-21.52-42.67-33.17-69.25-34.45h-.09c-20.31-1.02-41.27,4.08-60.2,15.36-.83.49-2.12,1.29-3.78,2.42h-.08c-6.88,4.43-20.23,13.4-36.65,24.53-19.21,13.02-44.29,13.43-63.93,1.07-3.49-2.19-6.96-4.38-10.42-6.54v-.07c-10.34-6.55-20.59-12.95-30.4-19.06-19.81-12.33-38.08-23.64-53.26-32.71h-.06c-11.3-6.72-20.95-12.31-28.34-16.32-5.89-3.22-10.43-5.44-13.24-6.52-8.52-3.22-17.28-4.92-25.96-5.2-2.02-.07-4.03-.07-6.04.01Z"/>
      </g>
      <text class="cls-2" transform="translate(548.06 784.68)"><tspan x="0" y="0">Infinitix</tspan></text>
    </g>
    <text class="cls-3" transform="translate(702.79 853.11)"><tspan x="0" y="0">TECHNOLOGIES</tspan></text>
  </g>
  <g>
    <g>
      <g>
        <path class="cls-6" d="M1028.78,1555.14c7.41,1.79,14.93,3.2,22.55,4.21,3.84.51,7.71.91,11.61,1.22,20.36,1.7,41.25.67,61.67-3.4,17.84-3.6,35.41-9.49,51.94-17.76,25.89-12.91,49.34-31.66,67.64-56.36,23.22-31.32,34.96-66.27,35.67-101.32.13-3.36.13-6.7,0-9.97-.7-35.05-12.44-70.01-35.67-101.32-18.3-24.7-41.63-43.47-67.64-56.36-16.53-8.27-34.1-14.16-51.94-17.84-20.5-3.98-41.3-5.11-61.67-3.4-11.53.89-22.98,2.72-34.14,5.39-3.68.88-7.32,1.85-10.92,2.9-15.02,4.51-29.5,10.6-42.97,18.21-4.31,2.46-11.09,6.93-19.72,13-10.49,7.33-23.71,17-38.35,27.89,3.18,1.78,6.46,3.61,9.83,5.48,16.14,8.99,35.95,8.3,51.42-1.82,6.43-4.21,11.26-7.16,14.07-8.52,1.34-.65,2.69-1.3,4.04-1.89,31.12-14.14,66.06-18.27,99.45-12.15,33.28,5.96,64.75,22.15,88.25,47.9,21.29,23.35,31.23,54.57,29.94,86.63,0,.6.11,1.12,0,1.72,1.29,32.05-8.65,63.2-29.94,86.54-23.5,25.75-54.98,41.93-88.25,47.9-33.39,6.13-68.33,2.06-99.52-12.16-1.36-.58-2.63-1.23-3.97-1.88-5.72-2.77-19.85-12.14-38.71-25.21-18.32-12.74-40.77-28.77-63.95-45.51-.05-.04-.09-.07-.14-.11-11.22-8.11-86.88-65.54-95.71-72-.04-.03-.09-.07-.14-.1-21.59-15.79-39.42-28.75-46.06-33.39-.99-.66-1.76-1.17-2.25-1.47-10.88-6.84-22.25-8.54-32.57-5.86h-.04c-12.62,3.18-23.76,12.8-31,27.67-5.28,10.81-7.52,22.85-6.88,34.63v.05c-.64,11.77,1.59,23.82,6.88,34.63,7.24,14.87,18.42,24.49,31.04,27.67h.04c10.32,2.63,21.65.92,32.53-5.86.49-.3,1.26-.81,2.25-1.53h.05c2.31-1.58,5.95-4.17,10.62-7.54,20.98-15.12,49.39-14.64,69.87,1.16.12.09.24.19.36.28v.06c9.34,7.29,18.98,14.73,28.6,22.12,20.65,15.88,41.32,31.71,59.82,45.51h.07c14.64,10.9,27.79,20.49,38.27,27.82,8.64,6.07,15.48,10.55,19.79,13.01,13.47,7.61,27.95,13.7,42.97,18.14,3.61,1.07,7.24,2.06,10.9,2.94Z"/>
        <path class="cls-6" d="M730.17,1244.94c-4,.16-7.96.62-11.89,1.37-1.95.37-3.89.82-5.82,1.33-9.74,2.53-19.17,6.83-27.89,12.77-7.24,4.96-14.04,11.07-20.17,18.21-9.11,10.6-16.89,23.65-22.67,38.94-6.99,18.5-10.39,37.71-10.59,56.44-.04,1.79-.04,3.58,0,5.32.2,18.74,3.6,37.95,10.59,56.45,5.78,15.29,13.52,28.34,22.67,38.94,6.13,7.14,12.94,13.25,20.17,18.26,8.75,5.89,18.15,10.23,27.89,12.77,5.78,1.55,11.71,2.47,17.7,2.73,2.02.09,4.03.11,6.05.05,8.67-.33,17.43-2.03,25.96-5.25,2.81-1.08,7.31-3.31,13.19-6.53,7.39-4.01,17.09-9.65,28.39-16.38-.19-.17-.39-.34-.58-.5-14.21-12.33-34.08-15.39-51.55-8.41-.11.04-.21.08-.31.12-.82.3-1.64.6-2.46.85-17.89,5.92-36.06,3.68-51.78-5.02-14.29-7.81-26.69-21.08-35.33-38.47-7.4-14.92-10.73-33.32-10.3-51.76,0-.35-.04-.64,0-.99-.43-18.44,2.9-36.79,10.3-51.71,8.63-17.4,21.04-30.66,35.33-38.48,15.72-8.69,33.89-10.99,51.83-5.02.82.25,1.59.55,2.41.86,3.53,1.31,12.54,6.67,25.25,14.7,13.16,8.36,30.51,19.76,49.99,32.74.04.03.08.06.13.09,10.08,6.72,91.76,64.28,103.21,72.08.06.04.12.08.18.12,30.13,20.49,57.59,39.07,68.47,46.19,1.66,1.04,2.95,1.85,3.78,2.34,18.93,11.35,39.96,16.46,60.28,15.36h.08c26.59-1.27,51.81-12.93,69.17-34.45,13.19-16.29,18.92-35.35,17.26-54.26v-.08c1.65-18.91-4.07-37.97-17.26-54.25-17.36-21.52-42.67-33.17-69.25-34.45h-.09c-20.31-1.02-41.27,4.08-60.2,15.36-.83.49-2.12,1.29-3.78,2.42h-.08c-6.88,4.43-20.23,13.4-36.65,24.53-19.21,13.02-44.29,13.43-63.93,1.07-3.49-2.19-6.96-4.38-10.42-6.54v-.07c-10.34-6.55-20.59-12.95-30.4-19.06-19.81-12.33-38.08-23.64-53.26-32.71h-.06c-11.3-6.72-20.95-12.31-28.34-16.32-5.89-3.22-10.43-5.44-13.24-6.52-8.52-3.22-17.28-4.92-25.96-5.2-2.02-.07-4.03-.07-6.04.01Z"/>
      </g>
      <text class="cls-5" transform="translate(539.03 1765.01)"><tspan x="0" y="0">Infinitix</tspan></text>
    </g>
    <text class="cls-4" transform="translate(693.75 1833.44)"><tspan x="0" y="0">TECHNOLOGIES</tspan></text>
  </g>
</svg>