<?xml version="1.0" encoding="UTF-8"?>
<svg id="Layer_1" data-name="Layer 1" xmlns="http://www.w3.org/2000/svg" viewBox="0 0 16 16">
  <defs>
    <style>
      .cls-1 {
        fill: #fff;
      }

      .cls-2 {
        fill: #00a19e;
      }
    </style>
  </defs>
  <rect class="cls-2" x="0" y="0" width="15.91" height="15.91" rx="2.29" ry="2.29"/>
  <g>
    <path class="cls-1" d="M9.43,11.48c.14.03.29.06.44.08.07,0,.15.02.23.02.4.03.8.01,1.2-.07.35-.07.69-.18,1.01-.35.5-.25.96-.62,1.32-1.1.45-.61.68-1.29.69-1.97,0-.07,0-.13,0-.19-.01-.68-.24-1.36-.69-1.97-.36-.48-.81-.85-1.32-1.1-.32-.16-.66-.28-1.01-.35-.4-.08-.8-.1-1.2-.07-.22.02-.45.05-.67.11-.07.02-.14.04-.21.06-.29.09-.57.21-.84.35-.08.05-.22.14-.38.25-.2.14-.46.33-.75.54.06.03.13.07.19.11.31.18.7.16,1-.04.13-.08.22-.14.27-.17.03-.01.05-.03.08-.04.61-.28,1.29-.36,1.94-.24.65.12,1.26.43,1.72.93.41.45.61,1.06.58,1.69,0,.01,0,.02,0,.03.03.62-.17,1.23-.58,1.69-.46.5-1.07.82-1.72.93-.65.12-1.33.04-1.94-.24-.03-.01-.05-.02-.08-.04-.11-.05-.39-.24-.75-.49-.36-.25-.79-.56-1.25-.89,0,0,0,0,0,0-.22-.16-1.69-1.28-1.86-1.4,0,0,0,0,0,0-.42-.31-.77-.56-.9-.65-.02-.01-.03-.02-.04-.03-.21-.13-.43-.17-.63-.11h0c-.25.06-.46.25-.6.54-.1.21-.15.45-.13.67h0c-.01.23.03.47.13.68.14.29.36.48.6.54h0c.2.05.42.02.63-.11,0,0,.02-.02.04-.03h0s.12-.08.21-.15c.41-.29.96-.29,1.36.02,0,0,0,0,0,0h0c.18.14.37.29.56.43.4.31.81.62,1.17.89h0c.29.21.54.4.75.54.17.12.3.21.39.25.26.15.54.27.84.35.07.02.14.04.21.06Z"/>
    <path class="cls-1" d="M3.61,5.43c-.08,0-.16.01-.23.03-.04,0-.08.02-.11.03-.19.05-.37.13-.54.25-.14.1-.27.22-.39.35-.18.21-.33.46-.44.76-.14.36-.2.73-.21,1.1,0,.03,0,.07,0,.1,0,.37.07.74.21,1.1.11.3.26.55.44.76.12.14.25.26.39.36.17.11.35.2.54.25.11.03.23.05.34.05.04,0,.08,0,.12,0,.17,0,.34-.04.51-.1.05-.02.14-.06.26-.13.14-.08.33-.19.55-.32,0,0,0,0-.01,0-.28-.24-.66-.3-1-.16,0,0,0,0,0,0-.02,0-.03.01-.05.02-.35.12-.7.07-1.01-.1-.28-.15-.52-.41-.69-.75-.14-.29-.21-.65-.2-1.01,0,0,0-.01,0-.02,0-.36.06-.72.2-1.01.17-.34.41-.6.69-.75.31-.17.66-.21,1.01-.1.02,0,.03.01.05.02.07.03.24.13.49.29.26.16.59.38.97.64,0,0,0,0,0,0,.2.13,1.79,1.25,2.01,1.4,0,0,0,0,0,0,.59.4,1.12.76,1.33.9.03.02.06.04.07.05.37.22.78.32,1.17.3h0c.52-.02,1.01-.25,1.35-.67.26-.32.37-.69.34-1.06h0c.03-.37-.08-.74-.34-1.06-.34-.42-.83-.65-1.35-.67h0c-.4-.02-.8.08-1.17.3-.02,0-.04.03-.07.05h0c-.13.09-.39.26-.71.48-.37.25-.86.26-1.25.02-.07-.04-.14-.09-.2-.13h0c-.2-.13-.4-.25-.59-.37-.39-.24-.74-.46-1.04-.64h0c-.22-.13-.41-.24-.55-.32-.11-.06-.2-.11-.26-.13-.17-.06-.34-.1-.51-.1-.04,0-.08,0-.12,0Z"/>
  </g>
</svg>